<?xml version="1.0" standalone="no"?>
<!DOCTYPE svg PUBLIC "-//W3C//DTD SVG 20010904//EN"
 "http://www.w3.org/TR/2001/REC-SVG-20010904/DTD/svg10.dtd">
<svg version="1.0" xmlns="http://www.w3.org/2000/svg"
 width="270.000000pt" height="270.000000pt" viewBox="0 0 270.000000 270.000000"
 preserveAspectRatio="xMidYMid meet">
<metadata>
Created by potrace 1.11, written by Peter Selinger 2001-2013
</metadata>
<g transform="translate(0.000000,270.000000) scale(0.100000,-0.100000)"
fill="#000000" stroke="none">
<path d="M29 2671 l-29 -29 0 -1292 0 -1292 29 -29 29 -29 1292 0 1292 0 29
29 29 29 0 1292 0 1292 -29 29 -29 29 -1292 0 -1292 0 -29 -29z m2481 -150
c13 -1 15 -137 14 -1166 0 -641 -4 -1168 -7 -1172 -12 -11 -2337 -9 -2338 2
-1 13 -1 2283 0 2315 l1 25 1157 -2 c637 0 1165 -2 1173 -2z"/>
<path d="M1224 2363 c-138 -46 -187 -223 -95 -341 101 -127 311 -92 371 63 16
39 14 116 -3 158 -42 100 -168 156 -273 120z"/>
<path d="M541 1821 c-49 -37 -40 -70 87 -292 11 -21 35 -64 52 -98 18 -34 38
-61 45 -61 7 0 105 31 219 69 l206 68 10 -36 c39 -147 130 -519 130 -531 0 -8
-74 -89 -164 -180 -98 -99 -170 -179 -179 -201 -18 -44 -12 -114 14 -150 40
-57 56 -59 556 -59 440 0 458 1 499 20 96 47 100 203 7 251 -21 10 -88 15
-265 19 l-236 5 107 111 c113 117 154 182 154 244 0 40 3 26 -58 325 -26 127
-53 257 -59 290 -39 193 -135 237 -406 188 -19 -3 -133 -55 -252 -114 l-218
-109 -80 119 c-89 134 -122 157 -169 122z"/>
</g>
</svg>
